<?xml version="1.0" encoding="UTF-8"?>
<svg version="1.1" xmlns="http://www.w3.org/2000/svg" width="32" height="32">
<path d="M0 0 C3.29291844 2.11084515 3.88775952 3.64347142 5.0625 7.375 C5 11 5 11 3.0625 14.4375 C-0.29536444 17.24714167 -1.79945652 17.92955099 -6.05859375 17.58203125 C-9.8001617 16.4603137 -11.14799711 14.28581158 -13 11 C-13.06817573 7.04580795 -12.5665223 4.88377478 -10.4375 1.5625 C-6.96196597 -0.66540643 -4.01732963 -0.80016627 0 0 Z " fill="#6BA758" transform="translate(20,7)"/>
<path d="M0 0 C3 1 3 1 4 3 C4.12005453 4.49649362 4.17531451 5.99874793 4.1875 7.5 C4.20167969 8.2940625 4.21585938 9.088125 4.23046875 9.90625 C4 12 4 12 2 14 C-4.96328294 14.67386609 -4.96328294 14.67386609 -8.5 12.375 C-10.43204232 9.31593299 -10.52979878 7.5572204 -10 4 C-8.5 2.125 -8.5 2.125 -7 1 C-6.814375 1.9590625 -6.814375 1.9590625 -6.625 2.9375 C-6.315625 3.9584375 -6.315625 3.9584375 -6 5 C-5.34 5.33 -4.68 5.66 -4 6 C-4 6.66 -4 7.32 -4 8 C-3.34 8 -2.68 8 -2 8 C-2 7.34 -2 6.68 -2 6 C-1.34 6 -0.68 6 0 6 C0 4.02 0 2.04 0 0 Z " fill="#BEDA9F" transform="translate(19,9)"/>
<path d="M0 0 C3 1 3 1 4 3 C4.06950541 4.54023996 4.08452357 6.08334988 4.0625 7.625 C4.05347656 8.44226562 4.04445313 9.25953125 4.03515625 10.1015625 C4.02355469 10.72804688 4.01195312 11.35453125 4 12 C3.01 12.495 3.01 12.495 2 13 C2 12.01 2 11.02 2 10 C0.35 10 -1.3 10 -3 10 C-2.67 8.68 -2.34 7.36 -2 6 C-1.34 6 -0.68 6 0 6 C0 4.02 0 2.04 0 0 Z " fill="#9BD575" transform="translate(19,9)"/>
<path d="M0 0 C0.66 0 1.32 0 2 0 C1.67 0.721875 1.34 1.44375 1 2.1875 C-0.36410901 6.02405658 -0.69850866 8.52080519 1.0625 12.25 C3.82414609 14.74439002 6.37208131 14.72619482 10 15 C10 15.33 10 15.66 10 16 C7.06989703 16.29797657 4.85737154 16.50083081 2 16 C-1.0625 13.4375 -1.0625 13.4375 -3 10 C-2.92684233 5.68369756 -2.39718413 3.59577619 0 0 Z " fill="#548E53" transform="translate(10,8)"/>
<path d="M0 0 C0.433125 0.9590625 0.433125 0.9590625 0.875 1.9375 C1.82823451 4.15206079 1.82823451 4.15206079 4 5 C4 5.66 4 6.32 4 7 C1 8 1 8 -2 7 C-1.125 2.25 -1.125 2.25 0 0 Z " fill="#9DD678" transform="translate(11,10)"/>
<path d="M0 0 C0.33 0.66 0.66 1.32 1 2 C0.67 2.66 0.34 3.32 0 4 C-0.66 4 -1.32 4 -2 4 C-2 4.66 -2 5.32 -2 6 C-2.66 6 -3.32 6 -4 6 C-4 5.34 -4 4.68 -4 4 C-4.99 3.67 -5.98 3.34 -7 3 C-7 2.34 -7 1.68 -7 1 C-5.5459375 1.0309375 -5.5459375 1.0309375 -4.0625 1.0625 C-1.12534105 1.35618499 -1.12534105 1.35618499 0 0 Z " fill="#70B557" transform="translate(19,11)"/>
<path d="M0 0 C2.31 0 4.62 0 7 0 C6.67 1.65 6.34 3.3 6 5 C5.67 4.01 5.34 3.02 5 2 C3.35 2 1.7 2 0 2 C0 1.34 0 0.68 0 0 Z " fill="#91BB82" transform="translate(16,17)"/>
<path d="M0 0 C2.31 0 4.62 0 7 0 C7.33 0.99 7.66 1.98 8 3 C2.25 3.125 2.25 3.125 0 2 C0 1.34 0 0.68 0 0 Z " fill="#ABCD93" transform="translate(9,17)"/>
</svg>
